<svg width="1024" height="1024" viewBox="0 0 1024 1024" fill="none" xmlns="http://www.w3.org/2000/svg">
<g clip-path="url(#clip0_2373_22692)">
<rect width="1024" height="1024" rx="200" fill="#F18D8D"/>
<rect x="1" width="1024" height="1024" rx="200" fill="white"/>
<g opacity="0.4">
<mask id="mask0_2373_22692" style="mask-type:luminance" maskUnits="userSpaceOnUse" x="1" y="0" width="1024" height="1024">
<rect x="1" width="1024" height="1024" rx="200" fill="white"/>
</mask>
<g mask="url(#mask0_2373_22692)">
<path opacity="0.5" fill-rule="evenodd" clip-rule="evenodd" d="M707.163 925.852C707.163 915.263 713.22 905.662 722.532 900.622C744.144 888.926 764.675 875.485 783.934 860.484C806.992 842.524 840.302 842.313 860.968 862.979V862.979C894.42 896.431 870.728 953.628 823.42 953.628H734.94C719.599 953.628 707.163 941.192 707.163 925.852V925.852ZM515.189 953.629C515.175 953.629 515.163 953.618 515.163 953.603V953.603C515.163 953.589 515.174 953.578 515.189 953.578C572.994 953.295 628.212 941.868 678.789 921.309C690.112 916.707 702.896 924.794 702.896 937.017V937.017C702.896 946.192 695.459 953.629 686.284 953.629H515.189ZM339.775 953.629C330.601 953.629 323.163 946.192 323.163 937.017V937.017C323.163 924.794 335.947 916.707 347.271 921.309C397.848 941.868 453.066 953.295 510.871 953.578C510.885 953.578 510.896 953.589 510.896 953.603V953.603C510.896 953.618 510.885 953.629 510.871 953.629H339.775ZM202.64 953.628C155.333 953.628 131.641 896.433 165.091 862.981V862.981C185.757 842.314 219.067 842.524 242.126 860.483C261.387 875.484 281.919 888.925 303.528 900.622C312.84 905.662 318.896 915.263 318.896 925.851V925.851C318.896 941.192 306.46 953.628 291.118 953.628H202.64ZM99.2062 706.162C109.795 706.162 119.396 712.219 124.436 721.531C136.132 743.143 149.573 763.674 164.574 782.934C182.534 805.992 182.745 839.301 162.079 859.968V859.968C128.627 893.419 71.4295 869.727 71.4295 822.419V733.939C71.4295 718.598 83.8656 706.162 99.2062 706.162V706.162ZM71.4295 514.188C71.4295 514.174 71.441 514.162 71.4552 514.162V514.162C71.4693 514.162 71.4808 514.174 71.4808 514.188C71.7633 572 83.1911 627.213 103.749 677.788C108.352 689.111 100.265 701.896 88.0419 701.896V701.896C78.8671 701.896 71.4295 694.458 71.4295 685.283V514.188ZM71.4295 338.775C71.4295 329.6 78.8671 322.162 88.0419 322.162V322.162C100.265 322.162 108.352 334.947 103.749 346.27C83.1911 396.847 71.7633 452.065 71.4808 509.87C71.4808 509.884 71.4693 509.896 71.4552 509.896V509.896C71.441 509.896 71.4295 509.884 71.4295 509.87V338.775ZM71.4296 201.639C71.4296 154.332 128.625 130.64 162.077 164.09V164.09C182.744 184.756 182.534 218.067 164.575 241.126C149.574 260.386 136.133 280.918 124.436 302.527C119.396 311.839 109.795 317.895 99.2072 317.895V317.895C83.8661 317.895 71.4296 305.459 71.4296 290.117V201.639ZM318.896 98.2065C318.896 108.794 312.84 118.395 303.529 123.435C281.919 135.132 261.387 148.573 242.127 163.574C219.068 181.533 185.758 181.744 165.091 161.076V161.076C131.641 127.624 155.334 70.4288 202.64 70.4288H291.119C306.46 70.4288 318.896 82.8653 318.896 98.2065V98.2065ZM510.871 70.4288C510.885 70.4288 510.896 70.4403 510.896 70.4545V70.4545C510.896 70.4686 510.885 70.4801 510.871 70.4802C453.065 70.7626 397.847 82.1968 347.27 102.751C335.947 107.353 323.163 99.2655 323.163 87.0426V87.0426C323.163 77.8671 330.601 70.4288 339.777 70.4288H510.871ZM686.282 70.4288C695.458 70.4288 702.896 77.8671 702.896 87.0426V87.0426C702.896 99.2655 690.112 107.353 678.789 102.751C628.212 82.1968 572.994 70.7626 515.188 70.4802C515.174 70.4801 515.163 70.4686 515.163 70.4545V70.4545C515.163 70.4403 515.174 70.4288 515.188 70.4288H686.282ZM823.42 70.4288C870.728 70.4288 894.42 127.626 860.968 161.078V161.078C840.301 181.745 806.992 181.533 783.934 163.574C764.675 148.572 744.144 135.131 722.532 123.435C713.22 118.395 707.163 108.794 707.163 98.2055V98.2055C707.163 82.8649 719.599 70.4288 734.94 70.4288H823.42ZM926.854 317.895C916.265 317.895 906.664 311.838 901.624 302.525C889.931 280.915 876.491 260.383 861.49 241.122C843.532 218.065 843.321 184.758 863.987 164.092V164.092C897.436 130.643 954.63 154.333 954.63 201.638V290.119C954.63 305.459 942.194 317.895 926.854 317.895V317.895ZM954.63 509.87C954.63 509.884 954.618 509.896 954.604 509.896V509.896C954.59 509.896 954.578 509.884 954.578 509.87C954.303 452.063 942.869 396.843 922.314 346.265C917.713 334.943 925.799 322.162 938.019 322.162V322.162C947.193 322.162 954.63 329.599 954.63 338.773V509.87ZM954.63 685.285C954.63 694.459 947.193 701.896 938.019 701.896V701.896C925.799 701.896 917.713 689.114 922.314 677.793C942.869 627.216 954.303 572.002 954.578 514.188C954.578 514.174 954.59 514.162 954.604 514.162V514.162C954.618 514.162 954.63 514.174 954.63 514.188V685.285ZM790.268 786.247C760.715 756.694 781.646 706.162 823.441 706.162H826.792C862.654 706.162 885.427 743.747 864.033 772.528C861.059 776.529 858.018 780.478 854.912 784.373C838.702 804.697 808.651 804.63 790.268 786.247V786.247ZM707.163 822.436C707.163 780.64 757.696 759.708 787.251 789.263V789.263C805.636 807.648 805.701 837.703 785.372 853.913C781.481 857.015 777.536 860.053 773.538 863.025C744.754 884.418 707.163 861.644 707.163 825.78V822.436ZM515.163 849.021C515.163 814.789 544.871 787.503 578.13 779.398V779.398C631.404 766.416 702.896 801.807 702.896 856.64V864.711C702.896 889.932 688.618 913.347 664.976 922.13C642.848 930.349 619.879 936.824 596.237 941.389C552.063 949.919 515.163 912.724 515.163 867.735V849.021ZM323.163 856.64C323.163 801.807 394.655 766.417 447.929 779.398V779.398C481.188 787.503 510.896 814.789 510.896 849.021V867.735C510.896 912.724 473.996 949.919 429.822 941.389C406.18 936.824 383.211 930.349 361.084 922.13C337.441 913.347 323.163 889.932 323.163 864.711V856.64ZM238.811 789.267C268.364 759.714 318.896 780.645 318.896 822.44V825.779C318.896 861.641 281.304 884.415 252.522 863.021C248.524 860.05 244.579 857.012 240.687 853.909C220.361 837.7 220.428 807.65 238.811 789.267V789.267ZM202.62 706.162C244.416 706.162 265.347 756.696 235.791 786.249V786.249C217.408 804.631 187.358 804.697 171.149 784.373C168.045 780.48 165.006 776.534 162.034 772.535C140.64 743.752 163.414 706.162 199.277 706.162H202.62ZM176.037 514.162C210.269 514.162 237.555 543.87 245.66 577.129V577.129C258.641 630.403 223.251 701.895 168.418 701.895H160.347C135.126 701.895 111.711 687.617 102.928 663.975C94.7087 641.847 88.2344 618.878 83.6691 595.236C75.1393 551.063 112.334 514.162 157.323 514.162H176.037ZM168.418 322.162C223.251 322.162 258.641 393.654 245.66 446.929V446.929C237.555 480.187 210.269 509.895 176.037 509.895H157.323C112.334 509.895 75.1389 472.995 83.6697 428.821C88.236 405.177 94.7123 382.206 102.935 360.075C111.719 336.437 135.132 322.162 160.35 322.162H168.418ZM235.791 237.808C265.347 267.361 244.416 317.895 202.62 317.895H199.281C163.418 317.895 140.644 280.303 162.038 251.52C165.009 247.522 168.047 243.577 171.15 239.685C187.359 219.36 217.408 219.426 235.791 237.808V237.808ZM318.896 201.618C318.896 243.412 268.365 264.343 238.811 234.79V234.79C220.429 216.407 220.362 186.357 240.687 170.148C244.579 167.045 248.524 164.007 252.522 161.036C281.305 139.643 318.896 162.416 318.896 198.279V201.618ZM510.896 175.037C510.896 209.269 481.188 236.555 447.929 244.66V244.66C394.655 257.642 323.163 222.251 323.163 167.418V159.35C323.163 134.132 337.438 110.719 361.076 101.935C383.206 93.7123 406.178 87.2361 429.822 82.6698C473.996 74.1389 510.896 111.334 510.896 156.323V175.037ZM702.896 167.418C702.896 222.251 631.404 257.642 578.13 244.66V244.66C544.871 236.555 515.163 209.269 515.163 175.037V156.323C515.163 111.334 552.064 74.1389 596.237 82.6698C619.881 87.2361 642.853 93.7123 664.983 101.935C688.622 110.719 702.896 134.132 702.896 159.35V167.418ZM787.251 234.795C757.696 264.35 707.163 243.418 707.163 201.622V198.278C707.163 162.414 744.754 139.64 773.538 161.033C777.535 164.005 781.481 167.043 785.372 170.146C805.701 186.355 805.636 216.41 787.251 234.795V234.795ZM823.44 317.895C781.646 317.895 760.715 267.363 790.268 237.81V237.81C808.651 219.428 838.701 219.361 854.91 239.686C858.013 243.578 861.051 247.523 864.022 251.521C885.416 280.304 862.642 317.895 826.78 317.895H823.44ZM850.027 509.895C815.793 509.895 788.507 480.184 780.402 446.924V446.924C767.42 393.651 802.805 322.162 857.637 322.162H865.712C890.933 322.162 914.348 336.44 923.131 360.083C931.351 382.212 937.825 405.183 942.391 428.826C950.92 472.997 913.727 509.895 868.741 509.895H850.027ZM780.402 577.134C788.507 543.873 815.793 514.162 850.027 514.162H868.741C913.727 514.162 950.92 551.061 942.391 595.231C937.825 618.875 931.351 641.845 923.131 663.975C914.348 687.617 890.933 701.895 865.712 701.895H857.637C802.805 701.895 767.42 630.407 780.402 577.134V577.134ZM515.163 744.388C515.163 723.276 532.277 706.162 553.388 706.162H569.046C617.415 706.162 634.689 758.85 588.227 772.3C576.948 775.565 565.368 778.114 553.539 779.896C532.549 783.058 515.163 765.615 515.163 744.388V744.388ZM472.67 706.162C493.782 706.162 510.896 723.276 510.896 744.387V744.387C510.896 765.615 493.51 783.058 472.519 779.896C460.69 778.114 449.11 775.564 437.831 772.299C391.37 758.85 408.644 706.162 457.012 706.162H472.67ZM280.673 514.162C301.783 514.162 318.896 531.275 318.896 552.385V568.041C318.896 616.407 266.211 633.678 252.762 587.219C249.498 575.943 246.949 564.366 245.167 552.541C242.003 531.55 259.445 514.162 280.673 514.162V514.162ZM318.896 471.673C318.896 492.783 301.783 509.896 280.673 509.896V509.896C259.445 509.896 242.003 492.508 245.167 471.517C246.949 459.692 249.498 448.115 252.762 436.839C266.211 390.38 318.896 407.651 318.896 456.017V471.673ZM510.896 279.672C510.896 300.782 493.783 317.895 472.673 317.895H457.017C408.651 317.895 391.38 265.21 437.839 251.761C449.115 248.497 460.692 245.948 472.517 244.166C493.508 241.002 510.896 258.444 510.896 279.672V279.672ZM553.386 317.895C532.276 317.895 515.163 300.782 515.163 279.672V279.672C515.163 258.444 532.551 241.002 553.541 244.166C565.367 245.948 576.943 248.497 588.219 251.761C634.678 265.21 617.408 317.895 569.041 317.895H553.386ZM745.388 509.896C724.277 509.896 707.163 492.782 707.163 471.67V456.012C707.163 407.644 759.851 390.37 773.3 436.831C776.565 448.11 779.115 459.69 780.897 471.519C784.059 492.51 766.616 509.896 745.388 509.896V509.896ZM707.163 552.388C707.163 531.276 724.277 514.162 745.388 514.162V514.162C766.615 514.162 784.058 531.548 780.897 552.539C779.115 564.366 776.566 575.945 773.301 587.223C759.853 633.685 707.163 616.412 707.163 568.043V552.388ZM515.163 647.792C515.163 599.591 573.44 575.452 607.524 609.535V609.535C641.607 643.619 617.468 701.896 569.267 701.896V701.896C539.386 701.896 515.163 677.673 515.163 647.792V647.792ZM418.54 609.539C452.622 575.457 510.896 599.595 510.896 647.794V647.794C510.896 677.673 486.674 701.895 456.795 701.895V701.895C408.596 701.895 384.458 643.621 418.54 609.539V609.539ZM377.266 514.162C425.468 514.162 449.607 572.439 415.523 606.523V606.523C381.44 640.606 323.163 616.467 323.163 568.266V568.266C323.163 538.385 347.386 514.162 377.266 514.162V514.162ZM415.524 417.535C449.607 451.619 425.468 509.896 377.267 509.896V509.896C347.386 509.896 323.163 485.673 323.163 455.792V455.792C323.163 407.591 381.44 383.452 415.524 417.535V417.535ZM510.896 376.263C510.896 424.462 452.622 448.6 418.54 414.518V414.518C384.458 380.437 408.596 322.162 456.795 322.162V322.162C486.674 322.162 510.896 346.384 510.896 376.263V376.263ZM607.523 414.523C573.44 448.606 515.163 424.467 515.163 376.266V376.266C515.163 346.385 539.386 322.162 569.266 322.162V322.162C617.468 322.162 641.607 380.439 607.523 414.523V414.523ZM648.795 514.162C678.674 514.162 702.896 538.384 702.896 568.263V568.263C702.896 616.462 644.622 640.6 610.54 606.518V606.518C576.458 572.437 600.596 514.162 648.795 514.162V514.162ZM648.795 509.895C600.596 509.895 576.458 451.621 610.54 417.539V417.539C644.622 383.457 702.896 407.595 702.896 455.794V455.794C702.896 485.673 678.674 509.895 648.795 509.895V509.895ZM954.629 822.421C954.629 869.727 897.434 893.417 863.984 859.965V859.965C843.32 839.3 843.532 805.994 861.49 782.937C876.491 763.677 889.931 743.146 901.625 721.534C906.664 712.22 916.265 706.162 926.855 706.162V706.162C942.194 706.162 954.629 718.597 954.629 733.937V822.421ZM1035.07 1034.07C1035.91 1033.24 1035.91 1031.89 1035.07 1031.05L994.54 990.518C982.501 978.48 991.028 957.895 1008.05 957.895H1025.03C1026.21 957.895 1027.16 956.94 1027.16 955.762V955.762C1027.16 954.584 1026.21 953.629 1025.03 953.629H993.03C974.178 953.629 958.896 938.347 958.896 919.495V740.296C958.896 721.444 974.178 706.162 993.03 706.162H1025.03C1026.21 706.162 1027.16 705.207 1027.16 704.029V704.029C1027.16 702.851 1026.21 701.895 1025.03 701.895H993.03C974.178 701.895 958.896 686.613 958.896 667.762V548.296C958.896 529.444 974.178 514.162 993.03 514.162H1025.03C1026.21 514.162 1027.16 513.207 1027.16 512.029V512.029C1027.16 510.851 1026.21 509.895 1025.03 509.895H993.03C974.178 509.895 958.896 494.613 958.896 475.762V356.296C958.896 337.444 974.178 322.162 993.03 322.162H1025.03C1026.21 322.162 1027.16 321.207 1027.16 320.029V320.029C1027.16 318.851 1026.21 317.896 1025.03 317.896H993.03C974.178 317.896 958.896 302.613 958.896 283.762V104.562C958.896 85.7108 974.178 70.4288 993.03 70.4288H1025.03C1026.21 70.4288 1027.16 69.4737 1027.16 68.2955V68.2955C1027.16 67.1173 1026.21 66.1622 1025.03 66.1622H1008.05C991.028 66.1622 982.501 45.5779 994.54 33.5392L1026.54 1.53928C1027.37 0.705437 1027.37 -0.646788 1026.54 -1.47944V-1.47944C1025.7 -2.31042 1024.36 -2.30945 1023.52 -1.47729L991.523 30.5227C979.483 42.5629 958.896 34.0356 958.896 17.0081V0.0288406C958.896 -1.14937 957.941 -2.10449 956.763 -2.10449V-2.10449C955.585 -2.10449 954.63 -1.14937 954.63 0.0288392V32.0289C954.63 50.8802 939.347 66.1622 920.496 66.1622H741.296C722.445 66.1622 707.163 50.8802 707.163 32.0288V0.0288411C707.163 -1.14937 706.208 -2.10449 705.03 -2.10449V-2.10449C703.851 -2.10449 702.896 -1.14937 702.896 0.0288392V32.0289C702.896 50.8802 687.614 66.1622 668.763 66.1622H549.296C530.445 66.1622 515.163 50.8802 515.163 32.0288V0.0288411C515.163 -1.14937 514.208 -2.10449 513.03 -2.10449V-2.10449C511.851 -2.10449 510.896 -1.14937 510.896 0.0288392V32.0289C510.896 50.8802 495.614 66.1622 476.763 66.1622H357.296C338.445 66.1622 323.163 50.8802 323.163 32.0288V0.0288411C323.163 -1.14937 322.208 -2.10449 321.03 -2.10449V-2.10449C319.851 -2.10449 318.896 -1.14937 318.896 0.0288392V32.0289C318.896 50.8802 303.614 66.1622 284.763 66.1622H105.563C86.7115 66.1622 71.4295 50.8802 71.4295 32.0288V0.0288411C71.4295 -1.14937 70.4744 -2.10449 69.2962 -2.10449V-2.10449C68.118 -2.10449 67.1629 -1.14937 67.1629 0.0288391V17.0081C67.1629 34.0356 46.5759 42.563 34.5357 30.5227L2.53561 -1.47734C1.70348 -2.30947 0.354615 -2.31043 -0.478694 -1.47947V-1.47947C-1.31371 -0.646814 -1.31462 0.705411 -0.480731 1.53919L31.5204 33.5362C43.5611 45.5753 35.0345 66.1622 18.0075 66.1622H1.02952C-0.148688 66.1622 -1.10381 67.1173 -1.10381 68.2955V68.2955C-1.10381 69.4737 -0.148686 70.4288 1.02952 70.4288H33.0295C51.8809 70.4288 67.1629 85.7109 67.1629 104.562V283.762C67.1629 302.614 51.8808 317.896 33.0295 317.896H1.02952C-0.148685 317.896 -1.10381 318.851 -1.10381 320.029V320.029C-1.10381 321.207 -0.148687 322.162 1.02952 322.162H33.0295C51.8809 322.162 67.1629 337.444 67.1629 356.296V475.762C67.1629 494.613 51.8808 509.895 33.0295 509.895H1.02955C-0.14867 509.895 -1.10381 510.851 -1.10381 512.029V512.029C-1.10381 513.207 -0.148674 514.162 1.02955 514.162H33.0295C51.8809 514.162 67.1629 529.444 67.1629 548.296V667.762C67.1629 686.613 51.8808 701.895 33.0295 701.895H1.02955C-0.14867 701.895 -1.10381 702.851 -1.10381 704.029V704.029C-1.10381 705.207 -0.148674 706.162 1.02955 706.162H33.0295C51.8809 706.162 67.1629 721.444 67.1629 740.296V919.496C67.1629 938.347 51.8808 953.629 33.0295 953.629H1.02952C-0.148685 953.629 -1.10381 954.584 -1.10381 955.762V955.762C-1.10381 956.94 -0.148688 957.895 1.02952 957.895H18.0075C35.0345 957.895 43.5611 978.482 31.5204 990.521L-0.480731 1022.52C-1.31497 1023.35 -1.31502 1024.71 -0.480849 1025.54V1025.54C0.353303 1026.37 1.70575 1026.37 2.53991 1025.54L34.5399 993.539C46.5786 981.501 67.1629 990.027 67.1629 1007.05V1024.03C67.1629 1025.21 68.118 1026.16 69.2962 1026.16V1026.16C70.4744 1026.16 71.4295 1025.21 71.4295 1024.03V992.029C71.4295 973.178 86.7115 957.895 105.563 957.895H284.763C303.614 957.895 318.896 973.178 318.896 992.029V1024.03C318.896 1025.21 319.851 1026.16 321.03 1026.16V1026.16C322.208 1026.16 323.163 1025.21 323.163 1024.03V992.029C323.163 973.178 338.445 957.895 357.296 957.895H476.763C495.614 957.895 510.896 973.178 510.896 992.029V1024.03C510.896 1025.21 511.851 1026.16 513.03 1026.16V1026.16C514.208 1026.16 515.163 1025.21 515.163 1024.03V992.029C515.163 973.178 530.445 957.895 549.296 957.895H668.763C687.614 957.895 702.896 973.178 702.896 992.029V1024.03C702.896 1025.21 703.851 1026.16 705.03 1026.16V1026.16C706.208 1026.16 707.163 1025.21 707.163 1024.03V992.029C707.163 973.178 722.445 957.895 741.296 957.895H920.496C939.348 957.895 954.63 973.178 954.63 992.029V1024.03C954.63 1025.21 955.585 1026.16 956.763 1026.16V1026.16C957.941 1026.16 958.896 1025.21 958.896 1024.03V1007.05C958.896 990.027 979.48 981.501 991.519 993.539L1032.05 1034.07C1032.89 1034.91 1034.24 1034.91 1035.07 1034.07V1034.07Z" fill="white"/>
</g>
</g>
<g opacity="0.4">
<rect opacity="0.720266" x="173" y="45" width="680" height="936" rx="199" stroke="white" stroke-width="2"/>
<rect opacity="0.720266" x="109" y="109" width="808" height="808" rx="199" stroke="white" stroke-width="2"/>
<rect opacity="0.720266" x="45" y="173" width="936" height="680" rx="199" stroke="white" stroke-width="2"/>
<path d="M981 513C981 771.469 771.469 981 513 981C254.531 981 45 771.469 45 513C45 254.531 254.531 45 513 45C771.469 45 981 254.531 981 513Z" stroke="white" stroke-width="2"/>
<path d="M723 513C723 628.98 628.98 723 513 723C397.02 723 303 628.98 303 513C303 397.02 397.02 303 513 303C628.98 303 723 397.02 723 513Z" stroke="white" stroke-width="2"/>
<rect x="365" y="365" width="296" height="296" rx="148" stroke="white" stroke-width="2"/>
<path d="M365 1V1025" stroke="white" stroke-width="2" stroke-linecap="square"/>
<path d="M513 0V1024" stroke="white" stroke-width="2" stroke-linecap="square"/>
<path d="M661 0V1024" stroke="white" stroke-width="2" stroke-linecap="square"/>
<path d="M1025 365H1" stroke="white" stroke-width="2" stroke-linecap="square"/>
<path d="M1024 513H0" stroke="white" stroke-width="2" stroke-linecap="square"/>
<path d="M1025 661H1" stroke="white" stroke-width="2" stroke-linecap="square"/>
<path d="M1 1L1025 1025" stroke="white" stroke-width="2" stroke-linecap="square"/>
<path d="M1025 1L1 1025" stroke="white" stroke-width="2" stroke-linecap="square"/>
</g>
<rect x="312" y="428.473" width="370.52" height="389.36" fill="#DF3821"/>
<path d="M783 817.84C783 732.896 779.86 635.72 757.88 554.08C735.9 459.88 707.416 410.858 663.68 350.794C591.46 268.34 554.404 247.467 497.26 214.96C440.116 182.453 373.853 171 312 171V312.313C360.34 312.313 443.88 368.82 443.88 450.46C488.54 475.865 538.106 413.436 572.288 460.378C606.469 507.321 633.583 563.05 652.082 624.383C670.581 685.716 680.102 751.453 680.102 817.84H783Z" fill="#DF3821"/>
</g>
<defs>
<clipPath id="clip0_2373_22692">
<rect width="1024" height="1024" rx="200" fill="white"/>
</clipPath>
</defs>
</svg>
