<svg width="300" height="300" viewBox="0 0 300 300" fill="none" xmlns="http://www.w3.org/2000/svg">
<rect width="300" height="300" fill="white"/>
<path d="M37.6564 201V162.828H28.1963V147.559H60.0618V182.08H61.2236C64.8749 182.08 67.9729 181.084 70.5177 179.092C73.1732 177.101 75.1648 174.169 76.4925 170.296C77.8202 166.313 78.4841 161.334 78.4841 155.359C78.4841 148.499 77.4883 143.078 75.4967 139.095C73.6157 135.001 70.7943 132.069 67.0324 130.298C63.2705 128.528 58.6235 127.643 53.0913 127.643C47.3378 127.643 42.1375 128.473 37.4904 130.132C32.8434 131.681 28.6942 133.562 25.043 135.775V115.03C28.6942 113.149 33.286 111.489 38.8182 110.051C44.3504 108.612 50.7124 107.893 57.9043 107.893C68.6368 107.893 77.3223 109.608 83.961 113.038C90.7102 116.468 95.6892 121.668 98.8979 128.639C102.107 135.609 103.711 144.35 103.711 154.861C103.711 164.709 102.217 173.118 99.2298 180.088C96.3531 186.948 91.5954 192.148 84.9568 195.689C78.4288 199.23 69.6879 201 58.7341 201H37.6564Z" fill="#3F80BA"/>
<rect x="124.027" y="143.762" width="54.466" height="57.2355" fill="#DF3821"/>
<path d="M193.264 200.999C193.264 188.512 192.802 174.227 189.571 162.226C186.34 148.379 182.153 141.173 175.724 132.344C165.108 120.223 159.661 117.155 151.26 112.376C142.86 107.598 133.12 105.914 124.027 105.914V126.687C131.133 126.687 143.414 134.993 143.414 146.994C149.979 150.729 157.265 141.552 162.289 148.452C167.314 155.353 171.3 163.545 174.019 172.561C176.738 181.577 178.138 191.24 178.138 200.999H193.264Z" fill="#DF3821"/>
<rect width="54.466" height="57.2355" transform="matrix(1 0 0 -1 212.195 163.152)" fill="#FDC636"/>
<path d="M281.432 105.915C281.432 118.402 280.97 132.687 277.739 144.688C274.508 158.535 270.321 165.741 263.892 174.571C253.276 186.691 247.828 189.759 239.428 194.538C231.028 199.316 221.288 201 212.195 201V180.227C219.301 180.227 231.582 171.921 231.582 159.92C238.147 156.185 245.433 165.362 250.457 158.462C255.482 151.561 259.468 143.369 262.187 134.353C264.906 125.337 266.306 115.674 266.306 105.915H281.432Z" fill="#FDC636"/>
</svg>
