<svg width="300" height="200" viewBox="0 0 300 200" fill="none" xmlns="http://www.w3.org/2000/svg">
<path d="M37.6564 151V112.828H28.1963V97.5589H60.0618V132.08H61.2236C64.8749 132.08 67.9729 131.084 70.5177 129.092C73.1732 127.101 75.1648 124.169 76.4925 120.296C77.8202 116.313 78.4841 111.334 78.4841 105.359C78.4841 98.4994 77.4883 93.0778 75.4967 89.0946C73.6157 85.0008 70.7943 82.0687 67.0324 80.2984C63.2705 78.5281 58.6235 77.643 53.0913 77.643C47.3378 77.643 42.1375 78.4728 37.4904 80.1325C32.8434 81.6815 28.6942 83.5624 25.043 85.7753V65.0296C28.6942 63.1486 33.286 61.4889 38.8182 60.0506C44.3504 58.6122 50.7124 57.893 57.9043 57.893C68.6368 57.893 77.3223 59.608 83.961 63.038C90.7102 66.4679 95.6892 71.6682 98.8979 78.6388C102.107 85.6094 103.711 94.3502 103.711 104.861C103.711 114.709 102.217 123.118 99.2298 130.088C96.3531 136.948 91.5954 142.148 84.9568 145.689C78.4288 149.23 69.6879 151 58.7341 151H37.6564Z" fill="#3F80BA"/>
<rect x="124.027" y="93.7617" width="54.466" height="57.2355" fill="#DF3821"/>
<path d="M193.264 150.999C193.264 138.512 192.802 124.227 189.571 112.226C186.34 98.3791 182.153 91.173 175.724 82.3435C165.108 70.2229 159.661 67.1546 151.26 62.3761C142.86 57.5977 133.12 55.9141 124.027 55.9141V76.6869C131.133 76.6869 143.414 84.9934 143.414 96.9944C149.979 100.729 157.265 91.5518 162.289 98.4523C167.314 105.353 171.3 113.545 174.019 122.561C176.738 131.577 178.138 141.24 178.138 150.999H193.264Z" fill="#DF3821"/>
<rect width="54.466" height="57.2355" transform="matrix(1 0 0 -1 212.195 113.152)" fill="#FDC636"/>
<path d="M281.432 55.9153C281.432 68.402 280.97 82.6867 277.739 94.6877C274.508 108.535 270.321 115.741 263.892 124.571C253.276 136.691 247.828 139.759 239.428 144.538C231.028 149.316 221.288 151 212.195 151V130.227C219.301 130.227 231.582 121.921 231.582 109.92C238.147 106.185 245.433 115.362 250.457 108.462C255.482 101.561 259.468 93.3691 262.187 84.3532C264.906 75.3373 266.306 65.674 266.306 55.9153H281.432Z" fill="#FDC636"/>
</svg>