<svg width="19" height="20" viewBox="0 0 19 20" fill="none" xmlns="http://www.w3.org/2000/svg">
<path d="M2.77083 6.43751H16.2292M3.77083 16.7292H15.2292C15.7814 16.7292 16.2292 16.2815 16.2292 15.7292V4.27084C16.2292 3.71856 15.7815 3.27084 15.2292 3.27084H3.77083C3.21855 3.27084 2.77083 3.71856 2.77083 4.27084V15.7292C2.77083 16.2815 3.21855 16.7292 3.77083 16.7292Z" stroke="#5C5C5C" stroke-linecap="round" stroke-linejoin="round"/>
<path d="M5.54167 9.80209C5.54167 9.47417 5.8075 9.20834 6.13542 9.20834C6.46334 9.20834 6.72917 9.47417 6.72917 9.80209C6.72917 10.13 6.46334 10.3958 6.13542 10.3958C5.8075 10.3958 5.54167 10.13 5.54167 9.80209Z" fill="#5C5C5C"/>
<path d="M5.54167 13.3646C5.54167 13.0367 5.8075 12.7708 6.13542 12.7708C6.46334 12.7708 6.72917 13.0367 6.72917 13.3646C6.72917 13.6925 6.46334 13.9583 6.13542 13.9583C5.8075 13.9583 5.54167 13.6925 5.54167 13.3646Z" fill="#5C5C5C"/>
<path d="M8.90625 13.3646C8.90625 13.0367 9.17208 12.7708 9.5 12.7708C9.82792 12.7708 10.0938 13.0367 10.0938 13.3646C10.0938 13.6925 9.82792 13.9583 9.5 13.9583C9.17208 13.9583 8.90625 13.6925 8.90625 13.3646Z" fill="#5C5C5C"/>
<path d="M8.90625 9.80209C8.90625 9.47417 9.17208 9.20834 9.5 9.20834C9.82792 9.20834 10.0938 9.47417 10.0938 9.80209C10.0938 10.13 9.82792 10.3958 9.5 10.3958C9.17208 10.3958 8.90625 10.13 8.90625 9.80209Z" fill="#5C5C5C"/>
<path d="M12.2708 9.80209C12.2708 9.47417 12.5367 9.20834 12.8646 9.20834C13.1925 9.20834 13.4583 9.47417 13.4583 9.80209C13.4583 10.13 13.1925 10.3958 12.8646 10.3958C12.5367 10.3958 12.2708 10.13 12.2708 9.80209Z" fill="#5C5C5C"/>
</svg>
