<svg width="19" height="20" viewBox="0 0 19 20" fill="none" xmlns="http://www.w3.org/2000/svg">
<path d="M1.60526 9.40621H5.55071C5.61224 7.39184 5.98492 5.55689 6.57443 4.16979C6.89744 3.40979 7.29726 2.75656 7.77152 2.28457C7.77673 2.27939 7.78195 2.27422 7.78718 2.26907C4.42566 3.01049 1.86609 5.88846 1.60526 9.40621Z" fill="black"/>
<path d="M1.60526 10.5937C1.86609 14.1115 4.42565 16.9894 7.78718 17.7308C7.78195 17.7257 7.77673 17.7205 7.77152 17.7153C7.29726 17.2434 6.89744 16.5901 6.57443 15.8301C5.98492 14.443 5.61224 12.6081 5.55071 10.5937H1.60526Z" fill="black"/>
<path d="M11.2128 17.7308C14.5743 16.9894 17.1339 14.1115 17.3947 10.5937H13.4493C13.3878 12.6081 13.0151 14.443 12.4256 15.8301C12.1026 16.5901 11.7027 17.2434 11.2285 17.7153C11.2233 17.7205 11.2181 17.7257 11.2128 17.7308Z" fill="black"/>
<path d="M17.3947 9.40621C17.1339 5.88846 14.5743 3.01049 11.2128 2.26907C11.2181 2.27422 11.2233 2.27939 11.2285 2.28457C11.7027 2.75656 12.1026 3.40979 12.4256 4.16979C13.0151 5.55689 13.3878 7.39184 13.4493 9.40621H17.3947Z" fill="black"/>
<path d="M10.3908 3.12628C10.0624 2.79945 9.76199 2.67704 9.5 2.67704C9.23802 2.67704 8.93758 2.79945 8.60919 3.12628C8.27838 3.4555 7.95319 3.96164 7.66733 4.63427C7.15026 5.85091 6.8001 7.52193 6.73879 9.40621H12.2612C12.1999 7.52193 11.8497 5.85091 11.3327 4.63427C11.0468 3.96164 10.7216 3.4555 10.3908 3.12628Z" fill="black"/>
<path d="M11.3327 15.3656C11.8497 14.149 12.1999 12.478 12.2612 10.5937L6.73879 10.5937C6.8001 12.478 7.15025 14.149 7.66733 15.3656C7.95319 16.0383 8.27838 16.5444 8.60919 16.8736C8.93758 17.2005 9.23802 17.3229 9.5 17.3229C9.76199 17.3229 10.0624 17.2005 10.3908 16.8736C10.7216 16.5444 11.0468 16.0383 11.3327 15.3656Z" fill="black"/>
</svg>
