<svg width="13" height="17" viewBox="0 0 13 17" fill="none" xmlns="http://www.w3.org/2000/svg">
<path d="M2.54168 4.54166C2.54168 2.35553 4.31388 0.583328 6.50001 0.583328C8.68614 0.583328 10.4583 2.35553 10.4583 4.54166V8.10416C10.4583 10.2903 8.68614 12.0625 6.50001 12.0625C4.31388 12.0625 2.54168 10.2903 2.54168 8.10416V4.54166Z" fill="black"/>
<path d="M1.60057 10.2414C1.46928 9.94091 1.11925 9.80375 0.818765 9.93503C0.518275 10.0663 0.381112 10.4163 0.512401 10.7168C1.44445 12.8501 3.48419 14.3905 5.90618 14.6087V15.8229C5.90618 16.1508 6.17201 16.4166 6.49993 16.4166C6.82785 16.4166 7.09368 16.1508 7.09368 15.8229V14.6087C9.51568 14.3905 11.5554 12.8501 12.4875 10.7168C12.6188 10.4163 12.4816 10.0663 12.1811 9.93503C11.8806 9.80375 11.5306 9.94091 11.3993 10.2414C10.5742 12.13 8.69029 13.4479 6.49993 13.4479C4.30958 13.4479 2.42571 12.13 1.60057 10.2414Z" fill="black"/>
</svg>
